<?xml version="1.0" ?><!DOCTYPE svg  PUBLIC '-//W3C//DTD SVG 20010904//EN'  'http://www.w3.org/TR/2001/REC-SVG-20010904/DTD/svg10.dtd'><svg height="256.000000pt" preserveAspectRatio="xMidYMid meet" version="1.0" viewBox="0 0 256.000000 256.000000" width="256.000000pt" xmlns="http://www.w3.org/2000/svg"><g fill="#000000" stroke="none" transform="translate(0.000000,256.000000) scale(0.100000,-0.100000)"><path d="M1358 2404 c-45 -42 -156 -146 -245 -232 l-163 -154 -62 37 c-80 48 -129 54 -193 26 -63 -28 -167 -114 -267 -220 -94 -101 -133 -155 -154 -213 -20 -56 -13 -94 31 -169 l36 -62 -43 -46 c-24 -25 -83 -87 -131 -137 -59 -63 -87 -99 -87 -115 0 -102 258 -427 565 -712 230 -214 392 -327 465 -327 31 0 49 15 268 221 101 95 118 107 173 123 215 59 372 223 429 445 9 35 32 65 114 150 175 180 376 405 382 427 22 83 -352 544 -631 779 -186 157 -335 255 -387 255 -9 0 -54 -34 -100 -76z m255 -150 c82 -55 468 -435 566 -557 84 -104 131 -184 131 -222 0 -26 -24 -55 -158 -195 l-159 -165 -12 55 c-7 30 -31 93 -53 140 -119 249 -422 392 -715 337 -124 -24 -204 -66 -295 -157 -120 -119 -182 -265 -194 -455 -12 -177 41 -320 161 -441 81 -81 192 -143 309 -171 l70 -17 -85 -78 c-47 -43 -93 -78 -105 -78 -41 0 -156 87 -346 264 -217 200 -458 507 -458 582 0 9 21 41 48 71 26 30 59 68 73 85 l26 31 47 -82 c51 -89 70 -99 113 -59 40 37 31 68 -77 258 -59 105 -100 187 -100 203 0 47 38 106 128 199 106 110 161 149 217 155 38 5 56 -3 216 -94 96 -55 182 -103 192 -106 26 -9 84 17 92 42 10 34 -10 57 -96 106 l-82 47 24 23 c13 13 98 94 189 180 l165 156 48 -4 c37 -3 65 -16 120 -53z m-88 -766 c245 -80 382 -306 331 -548 -41 -195 -186 -358 -360 -405 -123 -34 -277 -8 -385 64 -158 105 -231 240 -231 425 0 159 41 266 136 357 131 123 330 165 509 107z"/><path d="M1396 2105 c-78 -78 -95 -99 -87 -113 5 -9 37 -43 70 -75 l61 -58 44 36 c25 20 70 65 101 101 l57 64 -21 29 c-23 32 -109 111 -121 111 -4 0 -51 -43 -104 -95z"/><path d="M1273 1356 c-60 -19 -104 -49 -157 -106 -70 -75 -90 -127 -90 -235 -1 -79 2 -97 27 -146 58 -120 179 -207 301 -216 182 -15 340 110 365 287 22 162 -61 332 -196 400 -58 30 -183 38 -250 16z"/></g></svg>