<?xml version="1.0" ?><!DOCTYPE svg  PUBLIC '-//W3C//DTD SVG 1.1//EN'  'http://www.w3.org/Graphics/SVG/1.1/DTD/svg11.dtd'><svg height="32px" id="Layer_1" style="enable-background:new 0 0 32 32;" version="1.1" viewBox="0 0 32 32" width="32px" xml:space="preserve" xmlns="http://www.w3.org/2000/svg" xmlns:xlink="http://www.w3.org/1999/xlink"><g transform="translate(48 48)"><path d="M-27.281-30.199c0,2.596-2.104,4.701-4.7,4.701c-2.597,0-4.701-2.105-4.701-4.701c0-2.596,2.104-4.701,4.701-4.701   C-29.385-34.9-27.281-32.794-27.281-30.199z"/><path d="M-18.158-39.468h-7.768l-0.232-1.813c0-1.035-0.84-1.875-1.875-1.875h-8c-1.034,0-1.875,0.84-1.875,1.875l-0.231,1.813   h-7.705c-0.689,0-1.25,0.528-1.25,1.219v16.125c0,0.69,0.561,1.281,1.25,1.281h27.688c0.689,0,1.25-0.591,1.25-1.281V-38.25   c0-0.69-0.561-1.219-1.25-1.219H-18.158z M-31.996-22.496c-4.244,0-7.688-3.442-7.688-7.688c0-4.245,3.443-7.687,7.688-7.687   c4.246,0,7.689,3.442,7.689,7.687C-24.307-25.938-27.75-22.496-31.996-22.496z M-18.346-36.157h-6.563v-1.938h6.563V-36.157z"/></g></svg>